<svg xmlns="http://www.w3.org/2000/svg" viewBox="0 0 1170.83 162"><g id="Layer_2" data-name="Layer 2"><g id="Layer_1-2" data-name="Layer 1"><path d="M615.72,137.35c-32.27,0-58.52-25.08-58.52-55.9s26.25-55.91,58.52-55.91,58.53,25.08,58.53,55.91S648,137.35,615.72,137.35Zm0-89.84c-20.27,0-36.35,15.22-36.35,33.94s16.08,33.94,36.35,33.94,36.36-15.23,36.36-33.94S636,47.51,615.72,47.51ZM302.06,28.14H238.17V135h22V104h41.93a37.94,37.94,0,0,0,0-75.87Zm0,53.91H260.13V50.1h41.93a16,16,0,0,1,0,31.95ZM970.7,48.7V28.14H885.85V135H970.7V114.19H907.39V92.63h41.53V71.86H907.39V48.7Zm161.92-20.76h-22V89l-73.87-61.81V135h22V75.14l73.87,60.61Zm-328,0L773.76,91,743.14,27.94H716l57.42,108.4a.41.41,0,0,0,.71,0l57.67-108.4ZM476.47,101.68a37.94,37.94,0,0,0-13.09-73.54H399.49V135h22V104h30L469.85,135H496.2l-20.76-32.74ZM463.38,82.05H421.45V50.1h41.93a16,16,0,0,1,0,31.95Z"/><path d="M1161.11,29.58a9.71,9.71,0,1,1-9.69,9.72A9.75,9.75,0,0,1,1161.11,29.58Zm0,17.31a7.59,7.59,0,1,0-7.58-7.59A7.59,7.59,0,0,0,1161.11,46.89Zm-3.61-12a.51.51,0,0,1,.51-.52h4.18a3.27,3.27,0,0,1,3.32,3.35,3.15,3.15,0,0,1-1.91,3l1.24,2.8a.5.5,0,0,1-.46.73h-1.46a.59.59,0,0,1-.48-.37l-1.19-3h-1.41V43.7a.51.51,0,0,1-.51.51H1158a.51.51,0,0,1-.51-.51Zm4.4,4a1.08,1.08,0,0,0,1.1-1.11,1.06,1.06,0,0,0-1.1-1.11h-2.14v2.22Z"/><path d="M141,59.49V40.85l-16.14-9.32L113.14,38.3,86.83,23.11V9.32L70.69,0,54.55,9.32V23.11l-26.5,15.3L16.14,31.53,0,40.85V59.49l12.45,7.19V95.79L0,103v18.64l16.14,9.32,12.24-7.07L54.55,139v13.7L70.69,162l16.14-9.32V139l26-15,12,7L141,121.62V103l-12.07-7V66.46ZM62.64,14l8-4.65,8,4.65v9.3l-8,4.65-8-4.65ZM8.09,54.82v-9.3l8.05-4.64,8.05,4.64v9.3l-8,4.65ZM24.19,117l-8,4.65-8-4.65v-9.3L16.14,103l8.05,4.65ZM78.74,148l-8,4.65-8-4.65v-9.3l8-4.65,8,4.65Zm30-45v14L83,131.84l-12.33-7.12-12.33,7.12-26.08-15V103L20.54,96.2V66.27l11.74-6.78V45.31l26.16-15.1,12.25,7.07,12.24-7.07,25.79,14.88v14.4l12.12,7V96Zm24.19,4.67V117l-8,4.65-8-4.65v-9.3l8-4.65Zm-8-48.18-8-4.65v-9.3l8-4.64,8,4.64v9.3Z"/></g></g></svg>