<svg width="166" height="91" viewBox="0 0 166 91" fill="none" xmlns="http://www.w3.org/2000/svg">
<path d="M42.2475 17.8358V12.2513L37.4207 9.45364L33.916 11.4833L26.0514 6.93023V2.79404L21.2246 0L16.3997 2.79404V6.93023L8.47673 11.5199L4.92278 9.45364L0.0905762 12.2513V17.8358L3.81229 19.9898V28.7193L0.0905762 30.8734V36.4614L4.92278 39.2555L8.56973 37.138L16.3943 41.6673V45.7743L21.2192 48.5683L26.0459 45.7743V41.6673L33.8121 37.1709L37.4153 39.2555L42.242 36.4614V30.8734L38.6315 28.7852V19.9313L42.2475 17.8358ZM18.8176 4.19471L21.2246 2.80135L23.6316 4.19471V6.98143L21.2246 8.37479L18.8176 6.98143V4.19471ZM2.5085 16.4351V13.6484L4.92278 12.2513L7.32977 13.6447V16.4351L4.92278 17.8284L2.5085 16.4351ZM7.3243 35.0608L4.92278 36.4541L2.51397 35.0608V32.274L4.92278 30.8807L7.32977 32.274L7.3243 35.0608ZM23.6316 44.3736L21.2246 45.767L18.8176 44.3736V41.5869L21.2246 40.1935L23.6316 41.5869V44.3736ZM32.594 30.8734V35.079L24.9117 39.5261L21.2246 37.3922L17.5376 39.5261L9.74222 35.0132V30.8734L6.23021 28.84V19.8691L9.74222 17.8358V13.5844L17.5631 9.05685L21.2246 11.1761L24.8862 9.05685L32.594 13.5204V17.8358L36.2191 19.9313V28.7724L32.594 30.8734ZM39.8277 32.274V35.0608L37.4207 36.4541L35.0101 35.0608V32.274L37.4171 30.8807L39.8277 32.274ZM37.4207 17.8284L35.0101 16.4351V13.6484L37.4207 12.2513L39.8277 13.6447V16.4351L37.4207 17.8284Z" fill="white"/>
<path d="M67.1877 90.9999C61.4456 90.9999 56.772 86.5236 56.772 81.0233C56.772 75.5231 61.4456 71.0468 67.1877 71.0468C72.9299 71.0468 77.6034 75.5194 77.6034 81.0233C77.6034 86.5273 72.939 90.9999 67.1877 90.9999ZM67.1877 74.9672C63.5809 74.9708 60.7217 77.6826 60.7217 81.0233C60.7217 84.3641 63.5827 87.0795 67.1896 87.0795C70.7964 87.0795 73.6592 84.3623 73.6592 81.0233C73.6592 77.6844 70.7946 74.9708 67.1877 74.9708V74.9672ZM11.3694 71.5112H0V90.5721H3.90771V85.0498H11.3694C13.1587 85.0498 14.8748 84.337 16.1401 83.0682C17.4054 81.7994 18.1162 80.0785 18.1162 78.2842C18.1162 76.4898 17.4054 74.7689 16.1401 73.5001C14.8748 72.2313 13.1587 71.5185 11.3694 71.5185V71.5112ZM11.3694 81.1294H3.90771V75.4298H11.3694C11.7486 75.4202 12.126 75.4867 12.4792 75.6256C12.8324 75.7645 13.1543 75.9729 13.4259 76.2385C13.6975 76.5041 13.9134 76.8215 14.0608 77.172C14.2082 77.5226 14.2842 77.8992 14.2842 78.2796C14.2842 78.66 14.2082 79.0366 14.0608 79.3872C13.9134 79.7377 13.6975 80.0551 13.4259 80.3207C13.1543 80.5863 12.8324 80.7947 12.4792 80.9336C12.126 81.0724 11.7486 81.139 11.3694 81.1294ZM130.358 75.1793V71.5112H115.258V90.5721H130.358V86.8656H119.091V83.0165H126.482V79.3136H119.091V75.1793H130.358ZM159.169 71.4746H155.263V82.3618L142.118 71.332V90.5721H146.026V79.897L159.173 90.7147L159.169 71.4746ZM100.802 71.4746L95.3075 82.733L89.859 71.4746H85.0268L95.2382 90.8189C95.2445 90.8303 95.2538 90.8399 95.265 90.8465C95.2762 90.8531 95.289 90.8566 95.3021 90.8566C95.3151 90.8566 95.3279 90.8531 95.3391 90.8465C95.3503 90.8399 95.3596 90.8303 95.3659 90.8189L105.628 71.4746H100.802ZM42.4031 84.6402C43.8942 84.0948 45.1459 83.0397 45.938 81.6604C46.7301 80.2811 47.0118 78.6659 46.7337 77.0988C46.4557 75.5317 45.6355 74.1132 44.4175 73.0925C43.1996 72.0719 41.6617 71.5146 40.0745 71.5185H28.707V90.5721H32.6165V85.0498H37.9593L41.2288 90.5721H45.9187L42.2244 84.7207L42.4031 84.6402ZM40.0745 81.1367H32.6165V75.4298H40.0781C40.8194 75.4486 41.524 75.7571 42.0416 76.2895C42.5592 76.8219 42.8489 77.536 42.8489 78.2796C42.8489 79.0232 42.5592 79.7373 42.0416 80.2697C41.524 80.8021 40.8194 81.1106 40.0781 81.1294L40.0745 81.1367Z" fill="white"/>
<path d="M164.229 71.46C164.579 71.46 164.921 71.564 165.212 71.7588C165.503 71.9536 165.729 72.2305 165.863 72.5545C165.997 72.8785 166.032 73.2351 165.964 73.5791C165.896 73.9231 165.728 74.2392 165.481 74.4873C165.234 74.7354 164.919 74.9045 164.576 74.9731C164.233 75.0418 163.877 75.0069 163.554 74.8729C163.231 74.739 162.954 74.5119 162.76 74.2205C162.565 73.929 162.461 73.5863 162.461 73.2356C162.462 72.7654 162.649 72.3149 162.98 71.9823C163.312 71.6497 163.761 71.462 164.229 71.46ZM164.229 74.6234C164.503 74.6234 164.771 74.542 164.998 74.3895C165.226 74.237 165.403 74.0203 165.508 73.7667C165.613 73.5131 165.64 73.234 165.587 72.9648C165.533 72.6956 165.402 72.4483 165.208 72.2542C165.015 72.0601 164.768 71.9279 164.499 71.8743C164.231 71.8208 163.953 71.8483 163.7 71.9533C163.447 72.0584 163.231 72.2363 163.079 72.4645C162.927 72.6927 162.845 72.9611 162.845 73.2356C162.845 73.418 162.88 73.5986 162.95 73.7672C163.019 73.9358 163.121 74.089 163.25 74.218C163.378 74.347 163.531 74.4492 163.699 74.5188C163.867 74.5883 164.048 74.6239 164.229 74.6234ZM163.569 72.4292C163.569 72.4044 163.579 72.3807 163.597 72.3632C163.614 72.3457 163.638 72.3359 163.662 72.3359H164.426C164.506 72.3346 164.586 72.3496 164.66 72.3799C164.734 72.4103 164.802 72.4553 164.858 72.5123C164.914 72.5694 164.959 72.6372 164.988 72.7119C165.018 72.7865 165.032 72.8664 165.03 72.9466C165.034 73.0627 165.003 73.1774 164.941 73.2754C164.879 73.3733 164.788 73.45 164.682 73.4952L164.908 74.009C164.915 74.0232 164.919 74.039 164.918 74.055C164.917 74.0709 164.912 74.0864 164.904 74.0999C164.896 74.1134 164.884 74.1244 164.87 74.1319C164.856 74.1394 164.84 74.143 164.824 74.1425H164.558C164.538 74.1401 164.52 74.1323 164.504 74.1201C164.489 74.1078 164.477 74.0915 164.47 74.073L164.253 73.5245H163.998V74.0529C163.998 74.0781 163.988 74.1023 163.97 74.1202C163.952 74.138 163.928 74.148 163.903 74.148H163.662C163.65 74.148 163.638 74.1455 163.626 74.1407C163.615 74.1359 163.605 74.1289 163.596 74.12C163.587 74.1112 163.58 74.1007 163.576 74.0892C163.571 74.0776 163.569 74.0653 163.569 74.0529V72.4292ZM164.372 73.1606C164.398 73.1614 164.425 73.1566 164.45 73.1467C164.475 73.1367 164.497 73.1218 164.516 73.1027C164.535 73.0837 164.549 73.061 164.559 73.036C164.569 73.0111 164.573 72.9844 164.572 72.9576C164.574 72.9308 164.569 72.904 164.56 72.8789C164.55 72.8538 164.535 72.831 164.516 72.8119C164.498 72.7928 164.475 72.7779 164.45 72.768C164.425 72.7581 164.398 72.7536 164.372 72.7546H163.983V73.1423L164.372 73.1606Z" fill="white"/>
</svg>
